# xmcd
#
# Track frame offsets:
#	150
#	18175
#	26835
#	51724
#	77028
#	88226
#	108986
#	127763
#	143364
#	161048
#	175708
#	195381
#	199396
#	214662
#
# Disc length: 3050 seconds
#
# Revision: 1
# Processed by: cddbd v1.5.2PL0 Copyright (c) Steve Scherf et al.
# Submitted via: audiograbber 1.83.01
#
DISCID=ba0be80e
DTITLE=Lou Reed and Kris Kristofferson - The Bottom Line Archive #2
DYEAR=1900
DGENRE=
TTITLE0=KK On Nashville
TTITLE1=Help Me Make It Through The Night
TTITLE2=LR On Velvet Underground And Warhol
TTITLE3=Sweet Jane
TTITLE4=KK On Writing
TTITLE5=To Beat The Devil
TTITLE6=LR On Writing Prose
TTITLE7=Romeo Had Juliet
TTITLE8=Burden Of Freedom
TTITLE9=KK On "Me And Bobby Mcgee"
TTITLE10=Me And Bobby Mcgee
TTITLE11=KK On Bird On A Wire
TTITLE12=Bird On A Wire
TTITLE13=Tracks Of My Tears
EXTD=
EXTT0=
EXTT1=
EXTT2=
EXTT3=
EXTT4=
EXTT5=
EXTT6=
EXTT7=
EXTT8=
EXTT9=
EXTT10=
EXTT11=
EXTT12=
EXTT13=
PLAYORDER=
